# xmcd CD database file
#
# Track frame offsets:
#	150
#	25661
#	44327
#	64572
#	82535
#	111525
#	136257
#	151778
#	169393
#	186698
#	213380
#
# Disc length: 3096 seconds
#
# Revision: 0
# Processed by: cddbd v1.5.2PL0 Copyright (c) Steve Scherf et al.
# Submitted via: CDex 1.51
#
DISCID=900c160b
DTITLE=Jasmin Tabatabai - Eine Frau
DYEAR=2011
DGENRE=Jazz
TTITLE0=Augen in der Großstadt
TTITLE1=Kann denn Liebe Sünde sein
TTITLE2=Ein Brautkleid
TTITLE3=Ich weiss nicht zu wem ich gehöre
TTITLE4=Herbstgewitter über Dächern
TTITLE5=Warum soll eine Frau kein Verhältnis haben
TTITLE6=Eine Frau
TTITLE7=Nimm ihn dir
TTITLE8=La chanson d'Hélène
TTITLE9=Menschen die sich lieben
TTITLE10=Nacht (Agua e Vinho)
EXTD=YEAR: 2011
EXTT0=
EXTT1=
EXTT2=
EXTT3=
EXTT4=
EXTT5=
EXTT6=
EXTT7=
EXTT8=
EXTT9=
EXTT10=
PLAYORDER=
